<?xml version="1.0" standalone="no"?><!DOCTYPE svg PUBLIC "-//W3C//DTD SVG 1.1//EN" "http://www.w3.org/Graphics/SVG/1.1/DTD/svg11.dtd"><svg t="1773318184825" class="icon" viewBox="0 0 1024 1024" version="1.1" xmlns="http://www.w3.org/2000/svg" p-id="5420" xmlns:xlink="http://www.w3.org/1999/xlink" width="200" height="200"><path d="M204.8 64A140.8 140.8 0 0 0 64 204.8v102.4a38.4 38.4 0 0 0 76.8 0V204.8A64 64 0 0 1 204.8 140.8h102.4a38.4 38.4 0 0 0 0-76.8H204.8zM716.8 64a38.4 38.4 0 0 0 0 76.8h102.4A64 64 0 0 1 883.2 204.8v102.4a38.4 38.4 0 0 0 76.8 0V204.8A140.8 140.8 0 0 0 819.2 64h-102.4zM140.8 716.8a38.4 38.4 0 0 0-76.8 0v102.4A140.8 140.8 0 0 0 204.8 960h102.4a38.4 38.4 0 0 0 0-76.8H204.8A64 64 0 0 1 140.8 819.2v-102.4zM960 716.8a38.4 38.4 0 0 0-76.8 0v102.4a64 64 0 0 1-64 64h-102.4a38.4 38.4 0 0 0 0 76.8h102.4a140.8 140.8 0 0 0 140.8-140.8v-102.4zM396.8 371.2a38.4 38.4 0 0 0-76.8 0v128a38.4 38.4 0 0 0 76.8 0v-128zM665.6 332.8a38.4 38.4 0 0 1 38.4 38.4v128a38.4 38.4 0 0 1-76.8 0v-128A38.4 38.4 0 0 1 665.6 332.8zM307.0208 607.488a38.4 38.4 0 0 0-40.9344 65.024c63.3856 39.8848 151.04 63.36 245.9136 63.36 94.8736 0 182.528-23.4752 245.9136-63.3856a38.4 38.4 0 1 0-40.96-64.9728C668.16 638.2848 595.328 659.072 512 659.072c-83.328 0-156.1088-20.7872-204.9792-51.5584z" p-id="5421" fill="#2aa515"></path></svg>